<svg xmlns="http://www.w3.org/2000/svg" viewBox="0 0 23.68 23.68"><defs><style>.cls-1{fill:#fff;}</style></defs><g id="Layer_2" data-name="Layer 2"><g id="layout_배치_" data-name="layout(배치)"><path class="cls-1" d="M16.43,23.68H7.25A7.26,7.26,0,0,1,0,16.43V7.25A7.26,7.26,0,0,1,7.25,0h9.18a7.26,7.26,0,0,1,7.25,7.25v9.18A7.26,7.26,0,0,1,16.43,23.68ZM7.25,1.77A5.49,5.49,0,0,0,1.77,7.25v9.18a5.49,5.49,0,0,0,5.48,5.48h9.18a5.49,5.49,0,0,0,5.48-5.48V7.25a5.49,5.49,0,0,0-5.48-5.48Z"/><path class="cls-1" d="M11.84,17.83a6,6,0,1,1,6-6A6,6,0,0,1,11.84,17.83Zm0-10.16A4.18,4.18,0,1,0,16,11.84,4.17,4.17,0,0,0,11.84,7.67Z"/><path class="cls-1" d="M20,5.2a1.56,1.56,0,1,1-1.56-1.56A1.56,1.56,0,0,1,20,5.2Z"/></g></g></svg>