<svg xmlns="http://www.w3.org/2000/svg" viewBox="0 0 30.26 27.8"><defs><style>.cls-1{fill:#fff;}.cls-2{fill:#3d3d47;}</style></defs><g id="Layer_2" data-name="Layer 2"><g id="layout_배치_" data-name="layout(배치)"><path class="cls-1" d="M15.13,0C6.77,0,0,5.35,0,12,0,16.26,2.87,20,7.18,22.14,6.86,23.32,6,26.42,5.87,27.08c-.21.82.3.81.63.59l5.82-4a19.88,19.88,0,0,0,2.81.2c8.36,0,15.13-5.35,15.13-12S23.49,0,15.13,0"/><path class="cls-2" d="M9,8.44H4.62a.75.75,0,1,0,0,1.5H6.06v5.3a.7.7,0,0,0,.21.52.74.74,0,0,0,.52.22H7a.73.73,0,0,0,.73-.74V9.94H9a.75.75,0,0,0,0-1.5Z"/><path class="cls-2" d="M19.67,14.56H17.62V9.15a.82.82,0,0,0-1.64,0V15a.51.51,0,0,0,0,.13.66.66,0,0,0,.67.82h3a.69.69,0,1,0,0-1.37Z"/><path class="cls-2" d="M26.25,14.81,24,11.8,26,9.73a.72.72,0,1,0-1-1l-2.56,2.57V9.15a.82.82,0,0,0-1.64,0v6a.82.82,0,0,0,1.64,0V13.31l.46-.47,2.17,2.85a.73.73,0,0,0,1.17-.88Z"/><path class="cls-2" d="M15.37,15l-2.2-6h0a1.08,1.08,0,0,0-1-.64,1,1,0,0,0-1.07.76s0,.07-.05.1L8.85,15a.72.72,0,0,0,.44.93.75.75,0,0,0,.94-.45l.37-1.07h3L14,15.49a.74.74,0,0,0,.94.45A.72.72,0,0,0,15.37,15Zm-4.29-2,1-2.89h0l1,2.89Z"/></g></g></svg>