<svg xmlns="http://www.w3.org/2000/svg" viewBox="0 0 10.86 11.39"><defs><style>.cls-1,.cls-2{fill:none;stroke:#f7f6f5;stroke-miterlimit:10;}.cls-2{stroke-width:0.5px;}</style></defs><g id="Layer_2" data-name="Layer 2"><g id="Layer_1-2" data-name="Layer 1"><path class="cls-1" d="M4.19,4.74C2,6.8.6,8.91.5,9.72a.37.37,0,0,0,.07.3c.66.65,5.74,1.92,8.08-.79a7.34,7.34,0,0,0,.89-8.06C9.15.75,6.75,2.35,4.19,4.74Z"/><path class="cls-1" d="M7.82,7.08A2.84,2.84,0,0,0,9.05,4.19"/><path class="cls-1" d="M9.54,1.17A24.3,24.3,0,0,1,6.26,5.48,21.08,21.08,0,0,1,.57,10"/><line class="cls-2" x1="2.55" x2="2.55" y2="2.75"/><line class="cls-2" x1="1.18" y1="1.37" x2="3.93" y2="1.37"/></g></g></svg>