<svg xmlns="http://www.w3.org/2000/svg" viewBox="0 0 47.36 17"><defs><style>.cls-1{fill:#fff;}.cls-2{fill:#3d3d47;}</style></defs><g id="Layer_2" data-name="Layer 2"><g id="layout_배치_" data-name="layout(배치)"><path class="cls-1" d="M46.76,2.65A3.41,3.41,0,0,0,44.19.51C41.93,0,32.86,0,32.86,0S23.8,0,21.53.51A3.39,3.39,0,0,0,19,2.65a26.49,26.49,0,0,0-.61,5.85A26.49,26.49,0,0,0,19,14.35a3.39,3.39,0,0,0,2.56,2.14C23.8,17,32.86,17,32.86,17s9.07,0,11.33-.51a3.41,3.41,0,0,0,2.57-2.14,26.92,26.92,0,0,0,.6-5.85A26.92,26.92,0,0,0,46.76,2.65Z"/><path class="cls-1" d="M7.44,14.43a2.26,2.26,0,0,1-.89-1.31,8.39,8.39,0,0,1-.27-2.37V9.41A7.8,7.8,0,0,1,6.58,7a2.47,2.47,0,0,1,1-1.32,3,3,0,0,1,1.68-.41,2.87,2.87,0,0,1,1.64.42A2.37,2.37,0,0,1,11.76,7,8.14,8.14,0,0,1,12,9.41v1.34a8.51,8.51,0,0,1-.27,2.38,2.34,2.34,0,0,1-.91,1.31,3,3,0,0,1-1.7.41A3,3,0,0,1,7.44,14.43ZM9.77,13A4.31,4.31,0,0,0,10,11.51V8.62a4.29,4.29,0,0,0-.18-1.45.6.6,0,0,0-.61-.46.6.6,0,0,0-.59.46,4.29,4.29,0,0,0-.18,1.45v2.89A4.64,4.64,0,0,0,8.56,13a.63.63,0,0,0,1.21,0Z"/><path class="cls-2" d="M40.47,10.77v.47a11,11,0,0,0,.06,1.34,1.2,1.2,0,0,0,.21.64.63.63,0,0,0,.52.21.65.65,0,0,0,.64-.36,3.33,3.33,0,0,0,.19-1.21l1.79.1a3,3,0,0,1,0,.34,2.47,2.47,0,0,1-.7,1.91,2.88,2.88,0,0,1-2,.64,2.39,2.39,0,0,1-2.16-1,5.69,5.69,0,0,1-.61-3V9.28a5.57,5.57,0,0,1,.64-3,2.43,2.43,0,0,1,2.19-1,2.85,2.85,0,0,1,1.65.4,2,2,0,0,1,.8,1.22A8.55,8.55,0,0,1,44,9.19v1.58Zm.27-3.89a1.2,1.2,0,0,0-.21.64,11.12,11.12,0,0,0-.06,1.35v.67H42V8.87a11.35,11.35,0,0,0-.06-1.35,1.4,1.4,0,0,0-.22-.65.63.63,0,0,0-.49-.18A.59.59,0,0,0,40.74,6.88Z"/><path class="cls-1" d="M2.37,10.6,0,2.05H2.07L2.9,5.92c.21,1,.36,1.77.46,2.45h.06c.07-.48.23-1.29.47-2.43l.86-3.89H6.82L4.42,10.6v4.1h-2Z"/><path class="cls-1" d="M18.77,5.46V14.7H17.14L17,13.57h-.05a2.12,2.12,0,0,1-2,1.28,1.57,1.57,0,0,1-1.36-.6,3.24,3.24,0,0,1-.44-1.88V5.46h2.09v6.78a2.13,2.13,0,0,0,.13.89.47.47,0,0,0,.45.26.85.85,0,0,0,.52-.17,1,1,0,0,0,.37-.42V5.46Z"/><path class="cls-2" d="M30.44,5.46V14.7H28.81l-.18-1.13h0a2.13,2.13,0,0,1-2,1.28,1.56,1.56,0,0,1-1.36-.6,3.24,3.24,0,0,1-.44-1.88V5.46h2.08v6.78a2.1,2.1,0,0,0,.14.89.47.47,0,0,0,.45.26.85.85,0,0,0,.52-.17,1,1,0,0,0,.37-.42V5.46Z"/><path class="cls-2" d="M25.42,3.72H23.36v11h-2v-11H19.25V2.05h6.17Z"/><path class="cls-2" d="M37.33,6.94a2.33,2.33,0,0,0-.61-1.27,1.64,1.64,0,0,0-1.16-.39,1.89,1.89,0,0,0-1.07.32,2.25,2.25,0,0,0-.77.85h0V1.58h-2V14.7h1.72l.21-.87h0a1.79,1.79,0,0,0,.73.74,2.15,2.15,0,0,0,1.07.27,1.65,1.65,0,0,0,1.55-1,7.05,7.05,0,0,0,.5-3V9.36A11.73,11.73,0,0,0,37.33,6.94Zm-1.91,3.77a11,11,0,0,1-.08,1.58,1.75,1.75,0,0,1-.28.81.63.63,0,0,1-.53.25.94.94,0,0,1-.47-.12.92.92,0,0,1-.36-.37V7.61A1.23,1.23,0,0,1,34.07,7a.8.8,0,0,1,.55-.25.57.57,0,0,1,.49.25,1.94,1.94,0,0,1,.25.84c0,.39.06.95.06,1.67Z"/></g></g></svg>