<svg xmlns="http://www.w3.org/2000/svg" viewBox="0 0 102 69.35"><defs><style>.cls-1,.cls-2{fill:none;stroke:#fff;stroke-miterlimit:10;}.cls-1{stroke-width:2px;}.cls-3{fill:#fff;}</style></defs><g id="Layer_2" data-name="Layer 2"><g id="layout_배치_" data-name="layout(배치)"><path class="cls-1" d="M101,27.17V46.83A14.25,14.25,0,0,1,93.06,59.6L92,67.36,84.83,61H53.7A14.13,14.13,0,0,1,39.85,49a7.89,7.89,0,0,1-.1-.85,11.43,11.43,0,0,1-.07-1.32V27.17A14.14,14.14,0,0,1,53.7,13H87A14.14,14.14,0,0,1,101,27.17Z"/><path class="cls-1" d="M62.16,13H53.7a14.14,14.14,0,0,0-14,14.17V46.83a11.43,11.43,0,0,0,.07,1.32,7.89,7.89,0,0,0,.1.85H17.17L10,55.36,8.94,47.6A14.25,14.25,0,0,1,1,34.83V15.17A14.14,14.14,0,0,1,15,1H48.3A14.14,14.14,0,0,1,62.16,13Z"/><line class="cls-2" x1="51.47" y1="26" x2="89.21" y2="26"/><line class="cls-2" x1="51.47" y1="33.5" x2="89.21" y2="33.5"/><line class="cls-2" x1="51.47" y1="41" x2="89.21" y2="41"/><line class="cls-2" x1="51.47" y1="48.5" x2="68.92" y2="48.5"/><path class="cls-1" d="M24.3,14.19A9.23,9.23,0,0,1,30,10.08c4.16-.73,8.5,3.62,7.67,7.42a6.46,6.46,0,0,1-5.15,4.78c-.63.12-1.29.29-1.94.38a14.11,14.11,0,0,1-1.72,0v5.67"/><ellipse class="cls-3" cx="29.52" cy="32.63" rx="1.74" ry="1.42"/></g></g></svg>