<svg xmlns="http://www.w3.org/2000/svg" viewBox="0 0 100.84 113.94"><defs><style>.cls-1,.cls-2{fill:none;stroke:#fff;stroke-miterlimit:10;}.cls-1{stroke-width:2px;}.cls-2{stroke-width:3px;}</style></defs><g id="Layer_2" data-name="Layer 2"><g id="layout_배치_" data-name="layout(배치)"><circle class="cls-1" cx="50.42" cy="49.3" r="10.82"/><path class="cls-2" d="M64.05,77.33c.74,1.74,1.68,20.92-13.29,20.92-13.94,0-14-19.18-13.28-20.92a29.38,29.38,0,1,1,26.57,0Z"/><circle class="cls-1" cx="56.09" cy="41.11" r="5.15"/><line class="cls-2" x1="83.73" y1="38.94" x2="100.42" y2="34.1"/><line class="cls-2" x1="73.41" y1="21.9" x2="86" y2="9.91"/><line class="cls-2" x1="25.37" y1="21.9" x2="12.78" y2="9.91"/><line class="cls-2" x1="50.76" y1="17.38" x2="50.76"/><line class="cls-1" x1="17.11" y1="38.94" x2="0.42" y2="34.1"/><line class="cls-1" x1="17.11" y1="38.94" x2="0.42" y2="34.1"/><line class="cls-1" x1="17.11" y1="38.94" x2="0.42" y2="34.1"/><line class="cls-2" x1="17.11" y1="38.94" x2="0.42" y2="34.1"/><path class="cls-1" d="M57.46,108.3c0,2.57-3,4.64-6.7,4.64s-6.7-2.07-6.7-4.64"/><path class="cls-2" d="M58,100.83a7.22,7.22,0,1,1-14.43,0"/></g></g></svg>