<svg xmlns="http://www.w3.org/2000/svg" viewBox="0 0 102 46.74"><defs><style>.cls-1,.cls-2{fill:none;stroke:#fff;stroke-miterlimit:10;}.cls-2{stroke-width:2px;}</style></defs><g id="Layer_2" data-name="Layer 2"><g id="layout_배치_" data-name="layout(배치)"><ellipse class="cls-1" cx="22.89" cy="23.37" rx="16.36" ry="16.53"/><ellipse class="cls-1" cx="79.4" cy="23.37" rx="16.36" ry="16.53"/><ellipse class="cls-2" cx="78.87" cy="23.37" rx="22.13" ry="22.37"/><ellipse class="cls-2" cx="23.13" cy="23.37" rx="22.13" ry="22.37"/><path class="cls-1" d="M36.89,6.84s13.48,14.38,28.22,0"/><path class="cls-1" d="M65.11,40.86s-13.48-14.39-28.22,0"/><line class="cls-1" x1="51" y1="18.36" x2="51" y2="28.63"/><path class="cls-1" d="M22.82,15c-.26,0-.43.26-.56.48a42.7,42.7,0,0,0-3.49,6.41,11.32,11.32,0,0,0-1.1,6.1c1,5.75,10.09,5.34,10.52-.61a13.34,13.34,0,0,0-1.48-6.58,23.6,23.6,0,0,0-3.37-5.52A.7.7,0,0,0,22.82,15Z"/><path class="cls-1" d="M79.32,15c-.25,0-.42.26-.55.48a42.7,42.7,0,0,0-3.49,6.41,11.32,11.32,0,0,0-1.1,6.1c1,5.75,10.09,5.34,10.51-.61a13.23,13.23,0,0,0-1.47-6.58,23.31,23.31,0,0,0-3.38-5.52A.68.68,0,0,0,79.32,15Z"/></g></g></svg>