<?xml version="1.0" encoding="UTF-8"?>
<svg id="Layer_2" data-name="Layer 2" xmlns="http://www.w3.org/2000/svg" viewBox="0 0 28.37 29">
  <defs>
    <style>
      .cls-1 {
        fill: #89e8e8;
        stroke: #fff;
      }

      .cls-1, .cls-2 {
        stroke-miterlimit: 10;
      }

      .cls-2 {
        fill: none;
        stroke: #f7a56d;
      }
    </style>
  </defs>
  <g id="Layer_2-2" data-name="Layer 2">
    <g>
      <path class="cls-2" d="m4.34,10.18c-.13,0-.26,0-.37.05-.21.08-.35.3-.35.88l.02,3.27c0,.74.52,1.33,1.17,1.33h.76c.15,0,.29-.05.4-.15"/>
      <path class="cls-2" d="m14.6,23.54c-4.64-.11-8.41-3.52-8.73-7.83,0-.09-.01-.17-.01-.26,0-.11,0-.21,0-.32v-6.9C5.85,3.58,8.55.5,14.94.5c3.32,0,5.53.77,6.91,2.12,1.39,1.35,1.94,3.28,1.94,5.6v6.9c0,.17,0,.34-.02.5,0,.1-.01.21-.02.31-.33,3.2-2.56,5.88-5.63,7.02"/>
      <path class="cls-2" d="m25.26,10.41c.4,0,.73.36.73.8v3.94c0,.44-.33.8-.73.8h-1.29c-.11,0-.22-.03-.32-.08"/>
      <path class="cls-2" d="m9.29,6.26s1.47,2.53,4.42,2.53,7.31-.69,9.58,2.07"/>
      <path class="cls-2" d="m8.64,21.22v3.69c0,.58-.3,1.13-.81,1.45-.97.61-3.1,1.42-7.75,2.14"/>
      <path class="cls-2" d="m19.24,24.12v1c0,.57.4,1.07.97,1.24,2.22.64,7.49,2.14,7.66,2.14h.21"/>
      <path class="cls-1" d="m17.66,23.08c0,.64-.83,1.15-1.84,1.15-.76,0-1.41-.29-1.69-.69-.1-.14-.15-.3-.15-.46,0-.64.83-1.15,1.84-1.15.95,0,1.73.45,1.83,1.03,0,.04.01.08.01.13Z"/>
    </g>
  </g>
</svg>