<?xml version="1.0" encoding="UTF-8"?>
<svg id="Layer_2" data-name="Layer 2" xmlns="http://www.w3.org/2000/svg" viewBox="0 0 29 31.15">
  <defs>
    <style>
      .cls-1 {
        fill: none;
        stroke: #f7a56d;
        stroke-miterlimit: 10;
      }
    </style>
  </defs>
  <g id="Layer_2-2" data-name="Layer 2">
    <g>
      <g>
        <path class="cls-1" d="m16.67,6.18c0,1.04-.99,1.89-2.22,1.89s-2.21-.85-2.21-1.89.99-1.89,2.21-1.89c.34,0,.66.06.95.18-.09.12-.14.26-.14.42,0,.46.44.83.98.83.12,0,.23-.02.34-.06.05.17.09.34.09.52Z"/>
        <path class="cls-1" d="m17.2,4.89c0,.35-.25.65-.62.77-.11.04-.22.06-.34.06-.54,0-.98-.37-.98-.83,0-.16.05-.3.14-.42.16-.25.47-.41.84-.41.53,0,.96.37.96.83Z"/>
      </g>
      <path class="cls-1" d="m16.58,5.66c.05.17.09.34.09.52,0,1.04-.99,1.89-2.22,1.89s-2.21-.85-2.21-1.89.99-1.89,2.21-1.89c.34,0,.66.06.95.18.16-.25.47-.41.84-.41.53,0,.96.37.96.83,0,.35-.25.65-.62.77Z"/>
      <path class="cls-1" d="m15.89,19.84l8.86,10.19c-.83.4-1.76.62-2.74.62H6.99c-1.14,0-2.2-.29-3.13-.8l12.03-10.01Z"/>
      <path class="cls-1" d="m19.07,17.65l-.23.18,8.76,9.62c-.66,1.13-1.66,2.04-2.85,2.58l-8.86-10.19L3.86,29.85c-1.28-.71-2.29-1.84-2.86-3.2l11.64-9.65c.04.1.1.19.15.27.06.08.12.16.19.23.07.08.14.14.22.2.07.06.15.12.24.16.08.05.16.09.25.13.12.05.24.08.37.11.06,0,.13.02.19.03.96.12,2-.36,2.32-1.44.55-1.43,1.09-2.87,1.63-4.3.08-.22.17-.44.25-.66.37-1,.74-2.01,1.1-3.01.36-1.03.76-2.01.85-3.02.05-.65-.02-1.31-.3-1.99-.16-.39-.37-.74-.62-1.06h2.53c3.58,0,6.49,2.91,6.49,6.49v.2l-9.43,8.31Z"/>
      <path class="cls-1" d="m27.6,27.45l-8.53-9.8,9.43-7.5v14.16c0,1.14-.33,2.22-.9,3.14Z"/>
      <path class="cls-1" d="m20.1,3.71c-.16-.39-.37-.74-.62-1.06-.56-.73-1.33-1.28-2.19-1.63-.88-.36-1.83-.52-2.77-.52-1.62,0-3.47.83-4.57,2.15-.62.74-1.01,1.64-.99,2.63.01.91.4,1.83.67,2.69.34,1.08.7,2.16,1.05,3.24.59,1.77,1.18,3.53,1.77,5.3.02.06.04.12.07.19.03.11.07.21.12.3.04.1.1.19.15.27.06.08.12.16.19.23.07.08.14.14.22.2.07.06.15.12.24.16.08.05.16.09.25.13.12.05.24.08.37.11.06,0,.13.02.19.03.96.12,2-.36,2.32-1.44.55-1.43,1.09-2.87,1.63-4.3.08-.22.17-.44.25-.66.37-1,.74-2.01,1.1-3.01.36-1.03.76-2.01.85-3.02.05-.65-.02-1.31-.3-1.99Zm-7.86,2.47c0-1.05.99-1.89,2.21-1.89.34,0,.66.06.95.18.16-.25.47-.41.84-.41.53,0,.96.37.96.83,0,.35-.25.65-.62.77.05.17.09.34.09.52,0,1.04-.99,1.89-2.22,1.89s-2.21-.85-2.21-1.89Z"/>
      <path class="cls-1" d="m16.58,5.66c.05.17.09.34.09.52,0,1.04-.99,1.89-2.22,1.89s-2.21-.85-2.21-1.89.99-1.89,2.21-1.89c.34,0,.66.06.95.18.16-.25.47-.41.84-.41.53,0,.96.37.96.83,0,.35-.25.65-.62.77Z"/>
      <line class="cls-1" x1="27.04" y1="5.06" x2="18.2" y2="12.39"/>
      <path class="cls-1" d="m12.64,17L1,26.65c-.32-.77-.5-1.61-.5-2.49v-15.02C.5,5.56,3.41,2.65,6.99,2.65h2.96c-.62.74-1.01,1.64-.99,2.63.01.91.4,1.83.67,2.69.34,1.08.7,2.16,1.05,3.24.59,1.77,1.18,3.53,1.77,5.3.02.06.04.12.07.19.03.11.07.21.12.3Z"/>
      <line class="cls-1" x1="15.89" y1="19.84" x2="15.61" y2="19.51"/>
    </g>
  </g>
</svg>