<?xml version="1.0" encoding="UTF-8"?>
<svg id="Layer_2" data-name="Layer 2" xmlns="http://www.w3.org/2000/svg" viewBox="0 0 29 29">
  <defs>
    <style>
      .cls-1 {
        fill: none;
        stroke: #f7a56d;
        stroke-miterlimit: 10;
      }
    </style>
  </defs>
  <g id="Layer_2-2" data-name="Layer 2">
    <g>
      <path class="cls-1" d="m14.3,5.2S8.88-.95,8.61.82s.1,3.24.57,4.19c.36.73.76.73.76.73h4.64l-.27-.55Z"/>
      <path class="cls-1" d="m14.95,5.2S20.38-.95,20.64.82s-.1,3.24-.57,4.19c-.36.73-.76.73-.76.73h-4.64s.27-.55.27-.55Z"/>
      <rect class="cls-1" x=".5" y="5.7" width="28" height="4.59" rx="2.29" ry="2.29"/>
      <line class="cls-1" x1="11.11" y1="5.7" x2="11.11" y2="10.31"/>
      <line class="cls-1" x1="18.38" y1="5.7" x2="18.38" y2="10.31"/>
      <path class="cls-1" d="m21.93,28.5H7.44c-2.35,0-4.25-1.91-4.24-4.26l-.02-13.95h22.97l.02,13.99c-.01,2.33-1.91,4.22-4.24,4.22Z"/>
      <path class="cls-1" d="m13.09,17.18c-2.6,2.43-4.24,4.92-4.35,5.88-.02.16,0,.28.08.35.78.77,6.79,2.27,9.55-.93,3.45-4,1.53-9.02,1.06-9.53s-3.3,1.39-6.33,4.22Z"/>
      <path class="cls-1" d="m17.39,19.94c.6-.17,1.97-2.11,1.45-3.41"/>
      <path class="cls-1" d="m19.42,12.96s-1.7,2.91-3.88,5.09c0,0-3.15,3.64-6.73,5.36"/>
    </g>
  </g>
</svg>