<svg xmlns="http://www.w3.org/2000/svg" viewBox="0 0 192.06 122.9"><defs><style>.cls-1,.cls-2,.cls-3{fill:none;stroke:#fff;stroke-miterlimit:10;}.cls-1{stroke-width:4px;}.cls-2{stroke-width:6px;}.cls-3{stroke-width:5px;}</style></defs><g id="Layer_2" data-name="Layer 2"><g id="Layer_2-2" data-name="Layer 2"><circle class="cls-1" cx="104.91" cy="73.71" r="5.62"/><path class="cls-2" d="M75.88,41.54,8.08,73.11c-6.8,3-6.77,10.68.07,13.6L76,115.76a53.67,53.67,0,0,0,41.82-.21L184,86.31c6.71-3,6.71-10.57,0-13.54L118,41.62A53.65,53.65,0,0,0,75.88,41.54Z"/><circle class="cls-3" cx="97.42" cy="79.32" r="16.54"/><line class="cls-3" x1="64.22" y1="5.69" x2="74.18" y2="30.28"/><line class="cls-3" x1="33.89" y1="20.81" x2="52.07" y2="40.12"/><line class="cls-3" x1="134.4" y1="8.15" x2="122.89" y2="32.05"/><line class="cls-3" x1="160.56" y1="20.07" x2="144.78" y2="41.38"/><line class="cls-3" x1="97.03" y1="0.12" x2="98.3" y2="26.61"/><circle class="cls-2" cx="96.5" cy="79.96" r="39.5"/></g></g></svg>