<svg xmlns="http://www.w3.org/2000/svg" viewBox="0 0 216.49 137.74"><defs><style>.cls-1{fill:none;stroke:#fff;stroke-miterlimit:10;stroke-width:5px;}</style></defs><g id="Layer_2" data-name="Layer 2"><g id="Layer_2-2" data-name="Layer 2"><path class="cls-1" d="M116.75,61.46c-6.45.2-12.52.59-18,1.2-15.48,1.65-26.83,4.75-31.24,8.08-1.29,1-2,2-2,2.93-.11,5.4,7.55,20.91,20.4,35-30,17.55-75.82,5.48-82.55-1.17a4.09,4.09,0,0,1-.76-3.47C3.65,94.44,20,69.62,45.94,45.42,76.15,17.14,104.37-1.7,109,3.3,112.31,6.8,122.79,32.59,116.75,61.46Z"/><path class="cls-1" d="M98.7,62.66c4.34-7.06,7.45-16.43,4.54-23.74"/><path class="cls-1" d="M109,3.3s-16.92,29-38.67,50.75c0,0-31.42,36.25-67.06,53.46"/><path class="cls-1" d="M213.84,78.65s-32.7,7.68-63.44,6.87a283,283,0,0,1-41.72-1.93c-13.86-1.67-29.29-4.66-43.21-9.92,0-1,.7-2,2-2.93,4.41-3.33,15.76-6.43,31.24-8.08,5.53-.61,11.6-1,18-1.2,7.27-.19,15-.08,23.12.39C181.17,64.31,214.26,71.83,213.84,78.65Z"/><path class="cls-1" d="M213.84,78.65C216,84.2,195,135.24,139.08,135.24c-21.34,0-40-12.05-53.21-26.55C73,94.58,63,78.2,65.47,73.67c13.92,5.26,29.35,8.25,43.21,9.92a283,283,0,0,0,41.72,1.93C181.14,86.33,213.84,78.65,213.84,78.65Z"/><path class="cls-1" d="M149.4,111.82C154.79,115,178.17,111.56,184,99"/></g></g></svg>