<svg xmlns="http://www.w3.org/2000/svg" viewBox="0 0 142 143.56"><defs><style>.cls-1{fill:#fff;}.cls-2,.cls-3,.cls-4{fill:none;stroke:#fff;stroke-miterlimit:10;}.cls-2{stroke-linecap:round;}.cls-2,.cls-3{stroke-width:5px;}</style></defs><g id="Layer_2" data-name="Layer 2"><g id="Layer_2-2" data-name="Layer 2"><path class="cls-1" d="M71,0C31.79,0,0,32.14,0,71.78s31.79,71.78,71,71.78,71-32.14,71-71.78S110.21,0,71,0Zm52.16,38.54c-5,1.34-8.27,2.71-10.46,5.34a50.74,50.74,0,0,1,8.3,27.9c0,27.92-22.39,50.55-50,50.55a49.29,49.29,0,0,1-20.73-4.54,89.15,89.15,0,0,0-1.44,9,.45.45,0,0,1-.89,0,68.34,68.34,0,0,0-2.07-11.35A49.81,49.81,0,0,1,33,104.66c-.24-.28-.47-.55-.7-.84A50.65,50.65,0,0,1,21,71.78c0-27.92,22.39-50.55,50-50.55a49.45,49.45,0,0,1,31.1,11c2.62-3.15,3.78-8.1,4.84-16.91a.45.45,0,0,1,.89,0c2,16.22,4.22,19.35,15.33,22.3A.5.5,0,0,1,123.16,38.54Z"/><path class="cls-2" d="M45.53,71.3s-1-25,24-24"/><circle class="cls-1" cx="98.87" cy="85.23" r="6.73"/><path class="cls-3" d="M60.11,107.15c-1-.29-1.9-.63-2.82-1"/><path class="cls-3" d="M44.18,97.27A37,37,0,1,1,105,57.13a33.38,33.38,0,0,1,1.44,3.92h0a37.13,37.13,0,0,1-.84,23.9,34.74,34.74,0,0,1-2.78,5.72,37,37,0,0,1-42.69,16.47"/><path class="cls-4" d="M123.16,38.54c-5,1.34-8.27,2.71-10.46,5.34-2.62,3.12-3.79,8-4.84,16.74a35.46,35.46,0,0,0-1.5-4.08c-1.89-12.52-4.71-15.34-14.75-18a.49.49,0,0,1,0-.94c5.07-1.35,8.3-2.74,10.49-5.39,2.62-3.15,3.78-8.1,4.84-16.91a.45.45,0,0,1,.89,0c2,16.22,4.22,19.35,15.33,22.3A.5.5,0,0,1,123.16,38.54Z"/><path class="cls-4" d="M55.94,107.84c-2.9,2-4.52,4.91-5.67,10a89.15,89.15,0,0,0-1.44,9,.45.45,0,0,1-.89,0,68.34,68.34,0,0,0-2.07-11.35c-2-6.59-5.34-8.8-12.84-10.82-.24-.28-.47-.55-.7-.84a.4.4,0,0,1,.28-.22c11.1-2.95,13.37-6.08,15.33-22.3a.45.45,0,0,1,.89,0c2,16.22,4.22,19.35,15.33,22.3a.5.5,0,0,1,0,.94,26.23,26.23,0,0,0-8.22,3.3"/><path class="cls-4" d="M33,104.66c-.14,0-.28-.08-.42-.12a.49.49,0,0,1-.28-.72C32.56,104.11,32.79,104.38,33,104.66Z"/></g></g></svg>